<svg xmlns="http://www.w3.org/2000/svg" width="214.001" height="21.954" viewBox="0 0 214.001 21.954" fill="none">
  <path d="M 47.602 8.518 C 52.584 8.518 55.224 8.515 55.521 8.508 C 55.552 8.506 55.577 8.481 55.578 8.45 L 55.578 0.078 C 55.578 0.058 55.586 0.038 55.601 0.023 C 55.616 0.008 55.636 0 55.657 0 L 60.642 0 C 60.674 0 60.7 0.026 60.7 0.058 L 60.7 21.892 C 60.7 21.908 60.694 21.923 60.683 21.934 C 60.673 21.945 60.658 21.951 60.643 21.951 L 55.655 21.951 C 55.635 21.951 55.616 21.943 55.602 21.929 C 55.588 21.914 55.58 21.895 55.58 21.874 L 55.58 12.6 C 55.58 12.556 55.545 12.521 55.501 12.52 C 54.901 12.513 52.266 12.509 47.602 12.509 C 42.937 12.509 40.305 12.513 39.703 12.52 C 39.659 12.521 39.624 12.556 39.624 12.6 L 39.623 21.876 C 39.623 21.896 39.615 21.916 39.601 21.931 C 39.587 21.945 39.567 21.953 39.547 21.953 L 34.56 21.953 C 34.545 21.953 34.531 21.947 34.52 21.936 C 34.509 21.925 34.502 21.91 34.502 21.894 L 34.504 0.059 C 34.504 0.027 34.53 0.001 34.562 0.001 L 39.547 0.001 C 39.567 0.001 39.587 0.01 39.602 0.024 C 39.617 0.038 39.625 0.058 39.625 0.079 L 39.625 8.45 C 39.626 8.482 39.651 8.508 39.683 8.509 C 39.979 8.515 42.619 8.519 47.601 8.519 L 47.602 8.518 Z M 128.835 0.003 L 136.057 0.003 C 136.067 0.003 136.077 0.006 136.086 0.012 C 136.094 0.018 136.1 0.027 136.103 0.037 C 136.107 0.047 136.106 0.057 136.103 0.067 C 136.1 0.077 136.093 0.085 136.084 0.091 L 121.732 10.31 C 121.725 10.314 121.72 10.32 121.716 10.327 C 121.713 10.334 121.711 10.342 121.711 10.35 C 121.711 10.357 121.713 10.365 121.716 10.372 C 121.72 10.379 121.725 10.385 121.732 10.389 L 137.876 21.864 C 137.885 21.87 137.891 21.878 137.894 21.888 C 137.898 21.898 137.898 21.909 137.894 21.919 C 137.891 21.929 137.885 21.938 137.876 21.944 C 137.868 21.95 137.857 21.952 137.847 21.952 L 129.813 21.952 C 129.803 21.952 129.793 21.948 129.785 21.942 L 116.727 12.357 C 116.72 12.352 116.712 12.348 116.703 12.347 C 116.694 12.347 116.685 12.348 116.677 12.352 C 116.669 12.356 116.662 12.362 116.657 12.37 C 116.653 12.378 116.65 12.386 116.65 12.395 L 116.65 21.904 C 116.65 21.931 116.629 21.952 116.602 21.952 L 111.557 21.952 C 111.531 21.952 111.509 21.931 111.509 21.904 L 111.509 0.05 C 111.509 0.037 111.514 0.025 111.523 0.015 C 111.532 0.006 111.544 0.001 111.557 0.001 L 116.603 0.001 C 116.616 0.001 116.628 0.006 116.637 0.015 C 116.646 0.025 116.651 0.037 116.651 0.05 L 116.651 9.067 C 116.651 9.077 116.654 9.085 116.659 9.093 C 116.664 9.1 116.67 9.106 116.678 9.11 C 116.686 9.114 116.695 9.116 116.704 9.115 C 116.713 9.114 116.721 9.111 116.728 9.105 L 128.806 0.013 C 128.814 0.007 128.825 0.003 128.835 0.003 Z M 19.641 3.846 L 5.439 3.846 C 5.418 3.846 5.398 3.854 5.383 3.869 C 5.368 3.884 5.36 3.904 5.36 3.925 L 5.36 8.514 C 5.36 8.536 5.378 8.554 5.4 8.554 C 7.432 8.552 11.944 8.554 18.936 8.563 C 20.252 8.563 21.581 8.626 22.742 9.201 C 24.25 9.947 24.5 11.93 24.515 13.565 C 24.526 14.846 24.529 15.935 24.524 16.835 C 24.517 17.78 24.407 18.637 24.196 19.407 C 23.574 21.681 21.296 21.93 19.178 21.944 C 17.871 21.952 13.337 21.954 5.576 21.952 C 4.587 21.952 3.702 21.872 2.923 21.71 C 1.116 21.335 0.403 20.268 0.122 18.452 C 0.015 17.705 -0.022 16.949 0.012 16.195 C 0.012 16.167 0.032 16.143 0.06 16.137 L 4.44 15.248 C 4.457 15.245 4.475 15.249 4.489 15.26 C 4.502 15.271 4.51 15.288 4.51 15.305 L 4.51 17.745 C 4.51 17.767 4.519 17.788 4.534 17.804 C 4.549 17.819 4.57 17.828 4.591 17.828 L 19.945 17.828 C 19.985 17.828 20.017 17.796 20.017 17.756 L 20.017 12.888 C 20.017 12.854 19.989 12.826 19.955 12.826 C 15.481 12.824 10.997 12.825 6.504 12.829 C 5.315 12.829 3.974 12.749 2.822 12.252 C 1.254 11.575 0.933 9.649 0.91 8.042 C 0.885 6.371 0.892 5.148 0.93 4.371 C 0.977 3.375 1.154 2.552 1.463 1.901 C 2.293 0.139 4.639 0.008 6.332 0.006 C 13.509 0.002 17.744 0.003 19.039 0.008 C 20.248 0.014 21.494 0.167 22.572 0.728 C 24.068 1.507 24.275 3.723 24.225 5.219 C 24.224 5.259 24.196 5.293 24.157 5.302 L 19.835 6.32 C 19.81 6.326 19.783 6.32 19.763 6.304 C 19.743 6.287 19.731 6.263 19.731 6.237 L 19.731 3.935 C 19.731 3.911 19.722 3.889 19.705 3.872 C 19.688 3.855 19.665 3.846 19.641 3.846 Z M 95.295 21.916 L 92.702 17.192 C 92.689 17.17 92.666 17.157 92.64 17.157 L 78.842 17.157 C 78.816 17.157 78.792 17.171 78.78 17.194 L 76.198 21.915 C 76.186 21.938 76.162 21.952 76.136 21.952 L 71.247 21.952 C 71.222 21.952 71.2 21.938 71.187 21.917 C 71.174 21.896 71.174 21.869 71.186 21.847 L 83.523 0.038 C 83.536 0.016 83.559 0.002 83.585 0.002 L 88.424 0.002 C 88.45 0.002 88.474 0.016 88.486 0.038 L 100.984 21.849 C 100.99 21.859 100.993 21.871 100.993 21.883 C 100.993 21.895 100.989 21.907 100.983 21.918 C 100.977 21.929 100.969 21.938 100.958 21.944 C 100.947 21.95 100.935 21.954 100.923 21.954 L 95.357 21.954 C 95.331 21.954 95.307 21.939 95.295 21.916 Z M 85.869 4.354 C 85.86 4.339 85.844 4.329 85.826 4.329 C 85.808 4.329 85.791 4.338 85.782 4.354 L 80.988 13.116 C 80.976 13.14 80.985 13.169 81.008 13.182 C 81.015 13.186 81.024 13.189 81.032 13.189 L 90.476 13.189 C 90.503 13.189 90.526 13.168 90.527 13.141 C 90.527 13.132 90.525 13.124 90.521 13.116 L 85.869 4.354 Z M 161.047 17.828 C 163.459 17.828 165.865 17.825 168.268 17.818 C 168.283 17.818 168.298 17.812 168.308 17.801 C 168.319 17.79 168.325 17.776 168.325 17.761 L 168.325 0.053 C 168.325 0.039 168.331 0.026 168.34 0.016 C 168.35 0.006 168.362 0 168.376 0 L 173.351 0 C 173.368 0 173.385 0.007 173.397 0.019 C 173.409 0.031 173.415 0.047 173.415 0.064 C 173.421 10.431 173.419 16.158 173.409 17.245 C 173.398 18.326 173.199 19.293 172.812 20.144 C 172.043 21.834 169.444 21.929 167.903 21.948 C 167.742 21.95 165.456 21.951 161.047 21.951 C 156.638 21.951 154.351 21.951 154.189 21.948 C 152.649 21.93 150.049 21.836 149.281 20.145 C 148.893 19.294 148.695 18.328 148.685 17.247 C 148.674 16.159 148.672 10.432 148.676 0.065 C 148.677 0.03 148.705 0.002 148.74 0.002 L 153.715 0.002 C 153.729 0.002 153.742 0.007 153.751 0.017 C 153.761 0.027 153.766 0.04 153.766 0.054 L 153.768 17.761 C 153.768 17.776 153.774 17.791 153.785 17.801 C 153.796 17.811 153.811 17.817 153.826 17.817 C 156.227 17.824 158.633 17.827 161.047 17.827 L 161.047 17.828 Z M 204.03 13.677 C 204.024 13.677 204.019 13.679 204.014 13.682 C 204.009 13.685 204.005 13.69 204.003 13.696 C 204.001 13.702 204 13.708 204.002 13.714 C 204.004 13.719 204.007 13.724 204.011 13.728 L 213.982 21.871 C 213.99 21.877 213.995 21.885 213.998 21.894 C 214.005 21.913 213.998 21.933 213.981 21.944 C 213.974 21.949 213.964 21.952 213.955 21.952 L 206.823 21.952 C 206.778 21.952 206.734 21.935 206.701 21.904 L 198.042 13.798 C 197.958 13.72 197.846 13.676 197.731 13.676 L 193.135 13.676 C 193.118 13.676 193.102 13.683 193.09 13.695 C 193.078 13.707 193.072 13.724 193.072 13.741 L 193.072 21.886 C 193.072 21.904 193.065 21.921 193.052 21.933 C 193.04 21.946 193.024 21.953 193.006 21.953 L 188.13 21.953 C 188.109 21.953 188.089 21.945 188.074 21.929 C 188.059 21.914 188.051 21.894 188.051 21.873 L 188.051 0.07 C 188.051 0.053 188.059 0.036 188.071 0.024 C 188.084 0.012 188.101 0.005 188.118 0.005 C 193.392 0.002 199.567 0.003 206.647 0.007 C 208.046 0.007 209.985 0.144 210.933 1.373 C 211.505 2.113 211.757 3.107 211.765 3.999 C 211.791 5.904 211.789 7.809 211.759 9.714 C 211.751 10.332 211.624 10.942 211.386 11.513 C 210.564 13.455 208.504 13.608 206.661 13.68 L 204.03 13.678 L 204.03 13.677 Z M 193.07 3.896 L 193.07 9.841 C 193.07 9.862 193.079 9.884 193.095 9.899 C 193.11 9.915 193.131 9.923 193.153 9.923 L 205.142 9.923 C 205.596 9.923 206.033 9.776 206.355 9.513 C 206.676 9.25 206.856 8.892 206.856 8.522 L 206.856 5.214 C 206.856 5.03 206.812 4.848 206.726 4.677 C 206.635 4.501 206.509 4.347 206.355 4.223 C 206.189 4.089 206.001 3.986 205.798 3.919 C 205.587 3.848 205.365 3.812 205.142 3.812 L 193.153 3.812 C 193.131 3.812 193.11 3.821 193.095 3.837 C 193.079 3.852 193.07 3.874 193.07 3.896 Z" fill="currentColor" fill-rule="nonzero"></path>
</svg>
